<?xml version="1.0" encoding="UTF-8" standalone="no"?>
<svg
   xmlns:dc="http://purl.org/dc/elements/1.1/"
   xmlns:cc="http://creativecommons.org/ns#"
   xmlns:rdf="http://www.w3.org/1999/02/22-rdf-syntax-ns#"
   xmlns:svg="http://www.w3.org/2000/svg"
   xmlns="http://www.w3.org/2000/svg"
   xmlns:sodipodi="http://sodipodi.sourceforge.net/DTD/sodipodi-0.dtd"
   xmlns:inkscape="http://www.inkscape.org/namespaces/inkscape"
   width="164"
   height="300"
   viewBox="0 0 43.391666 79.374999"
   version="1.1"
   id="svg8"
   inkscape:version="1.0.2 (394de47547, 2021-03-26)"
   sodipodi:docname="budgie.svg">
  <defs
     id="defs2" />
  <sodipodi:namedview
     id="base"
     pagecolor="#ffffff"
     bordercolor="#666666"
     borderopacity="1.0"
     inkscape:pageopacity="0.0"
     inkscape:pageshadow="2"
     inkscape:zoom="0.9"
     inkscape:cx="-166.96016"
     inkscape:cy="301.258"
     inkscape:document-units="mm"
     inkscape:current-layer="layer1"
     inkscape:document-rotation="0"
     showgrid="false"
     inkscape:window-width="1859"
     inkscape:window-height="1056"
     inkscape:window-x="61"
     inkscape:window-y="24"
     inkscape:window-maximized="1"
     units="px" />
  <metadata
     id="metadata5">
    <rdf:RDF>
      <cc:Work
         rdf:about="">
        <dc:format>image/svg+xml</dc:format>
        <dc:type
           rdf:resource="http://purl.org/dc/dcmitype/StillImage" />
        <dc:title></dc:title>
      </cc:Work>
    </rdf:RDF>
  </metadata>
  <g
     inkscape:label="Layer 1"
     inkscape:groupmode="layer"
     id="layer1">
    <circle
       style="fill:#e2e73a;fill-opacity:1;stroke:none;stroke-width:0.375236;stroke-linecap:round;stroke-linejoin:round;stroke-miterlimit:4;stroke-dasharray:none;stroke-opacity:1"
       id="path947-6-56"
       cx="21.679714"
       cy="12.778565"
       r="12.778565" />
    <g
       aria-label="Budgie"
       transform="matrix(0.37523549,0,-0.05710226,0.37523549,-0.9176745,0)"
       id="text1075"
       style="font-style:normal;font-variant:normal;font-weight:normal;font-stretch:normal;font-size:35.5543px;line-height:1.25;font-family:'Futura BdCn BT';-inkscape-font-specification:'Futura BdCn BT';fill:#3a3a3a;fill-opacity:1;stroke-width:0.888858">
      <path
         d="m 50.835099,188.84366 h 0.538176 q 1.944375,0 2.847121,-0.76386 0.920106,-0.76386 0.920106,-2.36103 0,-1.68397 -0.937466,-2.48255 -0.920107,-0.79858 -2.864482,-0.79858 h -0.503455 z m 0,10.31214 q 0.121524,0 0.34721,0.0174 0.243047,0.0174 0.364571,0.0174 1.944375,0 2.8124,-0.78123 0.885385,-0.78122 0.885385,-2.48255 0,-1.82285 -0.885385,-2.60407 -0.885385,-0.78122 -2.916563,-0.78122 h -0.607618 z m -4.89566,4.51373 V 178.3232 h 4.930381 q 4.965102,0 7.013641,1.56244 2.065899,1.54509 2.065899,5.19079 0,2.0659 -0.781222,3.40266 -0.781223,1.33676 -2.43047,2.13534 1.840213,0.6597 2.708238,2.08326 0.885385,1.4062 0.885385,3.71515 0,1.71869 -0.572896,3.12489 -0.572897,1.38884 -1.666608,2.36102 -1.093711,0.95483 -2.638796,1.37148 -1.527723,0.3993 -4.826218,0.3993 z"
         style="font-style:normal;font-variant:normal;font-weight:normal;font-stretch:normal;font-family:'Futura BdCn BT';-inkscape-font-specification:'Futura BdCn BT';fill:#3a3a3a;fill-opacity:1;stroke-width:0.888858"
         id="path1077" />
      <path
         d="m 75.382842,186.63888 v 8.81913 q 0,5.10399 -1.354119,6.82268 -1.336759,1.70132 -4.860939,1.70132 -3.541542,0 -4.913021,-1.70132 -1.354119,-1.70133 -1.354119,-6.82268 v -8.81913 h 4.583171 v 10.95447 q 0,1.33676 0.364571,1.80549 0.36457,0.46874 1.284677,0.46874 0.920106,0 1.284676,-0.4861 0.381931,-0.48609 0.381931,-1.78813 v -10.95447 z"
         style="font-style:normal;font-variant:normal;font-weight:normal;font-stretch:normal;font-family:'Futura BdCn BT';-inkscape-font-specification:'Futura BdCn BT';fill:#3a3a3a;fill-opacity:1;stroke-width:0.888858"
         id="path1079" />
      <path
         d="m 86.771328,194.88511 q 0,-2.44783 -0.503455,-3.52418 -0.486094,-1.09371 -1.597165,-1.09371 -1.02427,0 -1.493003,1.09371 -0.451373,1.09371 -0.451373,3.5589 0,2.44783 0.503454,3.66307 0.520815,1.21523 1.562445,1.21523 1.05899,0 1.510363,-1.11107 0.468734,-1.12843 0.468734,-3.80195 z m 4.54845,8.78442 h -4.54845 v -2.48256 q -0.67706,1.42356 -1.631887,2.13535 -0.937467,0.69442 -2.170062,0.69442 -2.343667,0 -3.628344,-2.29159 -1.284677,-2.30895 -1.284677,-6.54491 0,-4.18388 1.319398,-6.44074 1.319398,-2.27423 3.732507,-2.27423 1.093711,0 1.996457,0.64234 0.920106,0.64234 1.666608,1.94438 v -12.29124 h 4.54845 z"
         style="font-style:normal;font-variant:normal;font-weight:normal;font-stretch:normal;font-family:'Futura BdCn BT';-inkscape-font-specification:'Futura BdCn BT';fill:#3a3a3a;fill-opacity:1;stroke-width:0.888858"
         id="path1081" />
      <path
         d="m 102.88187,186.63888 h 4.54845 v 15.74597 q 0,5.46855 -1.45828,7.30877 -1.44092,1.84021 -5.22551,1.84021 -2.986007,0 -4.635254,-1.56244 -1.649247,-1.54509 -1.649247,-4.34013 v -0.26041 h 3.975554 q 0,1.2326 0.555536,1.84022 0.572896,0.62497 1.683971,0.62497 1.21523,0 1.70133,-0.64233 0.50345,-0.62498 0.50345,-2.23951 v -3.52418 q -0.81594,1.19788 -1.75341,1.80549 -0.92011,0.60762 -1.944376,0.60762 -2.430469,0 -3.732507,-2.2395 -1.284677,-2.23951 -1.284677,-6.47547 0,-4.14916 1.319398,-6.40602 1.319398,-2.25687 3.732507,-2.25687 1.145795,0 2.048535,0.69442 0.92011,0.67706 1.61453,2.08326 z m 0,8.24623 q 0,-2.48255 -0.48609,-3.54154 -0.4861,-1.07635 -1.61453,-1.07635 -1.024269,0 -1.493003,1.09371 -0.451373,1.09371 -0.451373,3.5589 0,2.44783 0.503455,3.66307 0.520815,1.21523 1.562441,1.21523 1.05899,0 1.51037,-1.11107 0.46873,-1.12843 0.46873,-3.80195 z"
         style="font-style:normal;font-variant:normal;font-weight:normal;font-stretch:normal;font-family:'Futura BdCn BT';-inkscape-font-specification:'Futura BdCn BT';fill:#3a3a3a;fill-opacity:1;stroke-width:0.888858"
         id="path1083" />
      <path
         d="m 110.71145,182.09043 q 0,-1.16316 0.76386,-1.94438 0.78123,-0.79858 1.94438,-0.79858 1.11107,0 1.89229,0.79858 0.79859,0.79858 0.79859,1.94438 0,1.11107 -0.78123,1.89229 -0.78122,0.76386 -1.90965,0.76386 -1.16315,0 -1.94438,-0.7465 -0.76386,-0.76386 -0.76386,-1.90965 z m 0.34721,21.5791 v -17.03065 h 4.7047 v 17.03065 z"
         style="font-style:normal;font-variant:normal;font-weight:normal;font-stretch:normal;font-family:'Futura BdCn BT';-inkscape-font-specification:'Futura BdCn BT';fill:#3a3a3a;fill-opacity:1;stroke-width:0.888858"
         id="path1085" />
      <path
         d="m 128.03723,193.7046 q -0.0521,-1.85757 -0.67706,-2.74296 -0.60762,-0.90274 -1.84021,-0.90274 -1.21524,0 -1.85758,0.93746 -0.64234,0.93747 -0.64234,2.7256 z m -5.01719,2.70824 v 0.13888 q 0,1.90966 0.67706,2.93393 0.67706,1.02426 1.92702,1.02426 0.79858,0 1.35412,-0.48609 0.57289,-0.48609 0.9201,-1.47564 h 4.045 q -0.55554,2.55199 -2.30895,3.99291 -1.73605,1.44092 -4.27068,1.44092 -3.17697,0 -5.0519,-2.37838 -1.87494,-2.37839 -1.87494,-6.42339 0,-4.09708 1.87494,-6.47546 1.87493,-2.37839 5.0519,-2.37839 3.36794,0 5.08663,2.34367 1.71869,2.34366 1.71869,6.92683 v 0.81595 z"
         style="font-style:normal;font-variant:normal;font-weight:normal;font-stretch:normal;font-family:'Futura BdCn BT';-inkscape-font-specification:'Futura BdCn BT';fill:#3a3a3a;fill-opacity:1;stroke-width:0.888858"
         id="path1087" />
    </g>
    <path
       id="path947-6-9-2-7"
       style="fill:#3ae740;fill-opacity:1;stroke:none;stroke-width:0.375236;stroke-linecap:round;stroke-linejoin:round;stroke-miterlimit:4;stroke-dasharray:none;stroke-opacity:1"
       d="m 43.359692,35.030226 c 0,4.618939 -0.936097,9.019239 -2.628926,13.021538 -1.046251,2.473608 -2.560194,4.701231 -4.43098,6.572017 -3.741567,3.74157 -8.910496,6.055779 -14.619941,6.055779 -5.709443,0 -10.878373,-2.314209 -14.6199396,-6.055779 C 5.1891203,52.752995 3.6751765,50.525372 2.6289261,48.051764 0.9360962,44.049465 0,39.649165 0,35.030224 0,30.411285 0.9360962,26.010984 2.6289261,22.008684 3.6751765,19.535075 5.1891203,17.307451 7.0599054,15.436665 10.801472,11.695097 15.970405,9.3808876 21.679845,9.3808876 c 5.709445,0 10.878374,2.3142084 14.619941,6.0557774 1.870786,1.870785 3.384729,4.09841 4.43098,6.572019 1.692829,4.0023 2.628926,8.402602 2.628926,13.021542 z"
       sodipodi:nodetypes="scssscscssscs" />
    <path
       id="path947-6-9-9-2"
       style="fill:#1ad420;fill-opacity:1;stroke:none;stroke-width:0.375236;stroke-linecap:round;stroke-linejoin:round;stroke-miterlimit:4;stroke-dasharray:none;stroke-opacity:1"
       d="M 9.440869,13.392354 C 8.596236,14.013737 7.799731,14.696865 7.0598681,15.436729 5.1890828,17.307514 3.6751202,19.535062 2.6288699,22.00867 0.9360399,26.010969 5.63e-5,30.411255 5.63e-5,35.030194 c 0,4.61894 0.9359836,9.019229 2.6288136,13.021525 0.9986067,2.36097 2.4241713,4.497066 4.1785286,6.313461 A 33.45332,33.45332 0 0 0 15.217979,32.184589 33.45332,33.45332 0 0 0 9.440869,13.392354 Z" />
    <circle
       style="fill:#e2e73a;fill-opacity:1;stroke:none;stroke-width:0.375236;stroke-linecap:round;stroke-linejoin:round;stroke-miterlimit:4;stroke-dasharray:none;stroke-opacity:1"
       id="path947-6-3-3"
       cx="16.804567"
       cy="13.814023"
       r="7.8977547" />
    <path
       id="path947-6-9-9-2-3"
       style="fill:#1ad420;fill-opacity:1;stroke:none;stroke-width:0.375236;stroke-linecap:round;stroke-linejoin:round;stroke-miterlimit:4;stroke-dasharray:none;stroke-opacity:1"
       d="m 33.919772,13.39253 c 0.844633,0.621383 1.641134,1.304511 2.381001,2.044376 1.870785,1.870784 3.384748,4.098331 4.430998,6.571939 1.69283,4.002301 2.628814,8.402586 2.628814,13.021526 0,4.61894 -0.935984,9.019228 -2.628814,13.021524 -0.99861,2.36097 -2.424171,4.497066 -4.178528,6.313461 a 33.453321,33.453321 0 0 1 -8.410581,-22.18059 33.453321,33.453321 0 0 1 5.77711,-18.792236 z" />
    <circle
       style="fill:#e2e73a;fill-opacity:1;stroke:none;stroke-width:0.375236;stroke-linecap:round;stroke-linejoin:round;stroke-miterlimit:4;stroke-dasharray:none;stroke-opacity:1"
       id="path947-6-3-6"
       cx="26.539757"
       cy="13.814093"
       r="7.8977547" />
    <path
       id="path947-0-6"
       style="fill:#e2e73a;fill-opacity:1;stroke:none;stroke-width:0.375236;stroke-linecap:round;stroke-linejoin:round;stroke-miterlimit:4;stroke-dasharray:none;stroke-opacity:1"
       d="m 14.986114,61.316087 c 0,1.029748 -0.834775,1.864527 -1.864523,1.864527 -1.029751,0 -1.864526,-0.834775 -1.864526,-1.864527 v -4.104326 c 0,-1.029751 0.834775,-1.864526 1.864526,-1.864526 1.029748,0 1.864523,0.834779 1.864523,1.864526 z"
       sodipodi:nodetypes="csccscc" />
    <path
       id="path947-0-6-2"
       style="fill:#e2e73a;fill-opacity:1;stroke:none;stroke-width:0.375236;stroke-linecap:round;stroke-linejoin:round;stroke-miterlimit:4;stroke-dasharray:none;stroke-opacity:1"
       d="m 18.715204,61.316087 c 0,1.029748 -0.834775,1.864527 -1.864522,1.864527 -1.029752,0 -1.864527,-0.834775 -1.864527,-1.864527 v -4.104326 c 0,-1.029751 0.834775,-1.864526 1.864527,-1.864526 1.029747,0 1.864522,0.834779 1.864522,1.864526 z"
       sodipodi:nodetypes="csccscc" />
    <path
       id="path947-0-6-6"
       style="fill:#e2e73a;fill-opacity:1;stroke:none;stroke-width:0.375236;stroke-linecap:round;stroke-linejoin:round;stroke-miterlimit:4;stroke-dasharray:none;stroke-opacity:1"
       d="m 28.37339,61.316087 c 0,1.029748 -0.834775,1.864527 -1.864523,1.864527 -1.029751,0 -1.864526,-0.834775 -1.864526,-1.864527 v -4.104326 c 0,-1.029751 0.834775,-1.864526 1.864526,-1.864526 1.029748,0 1.864523,0.834779 1.864523,1.864526 z"
       sodipodi:nodetypes="csccscc" />
    <path
       id="path947-0-6-2-1"
       style="fill:#e2e73a;fill-opacity:1;stroke:none;stroke-width:0.375236;stroke-linecap:round;stroke-linejoin:round;stroke-miterlimit:4;stroke-dasharray:none;stroke-opacity:1"
       d="m 32.102481,61.316087 c 0,1.029748 -0.834775,1.864527 -1.864523,1.864527 -1.029751,0 -1.864527,-0.834775 -1.864527,-1.864527 v -4.104326 c 0,-1.029751 0.834776,-1.864526 1.864527,-1.864526 1.029748,0 1.864523,0.834779 1.864523,1.864526 z"
       sodipodi:nodetypes="csccscc" />
    <path
       id="path947-6-3-3-7"
       style="fill:#bec318;fill-opacity:1;stroke:none;stroke-width:0.375236;stroke-linecap:round;stroke-linejoin:round;stroke-miterlimit:4;stroke-dasharray:none;stroke-opacity:1"
       d="m 18.642206,13.814104 c 7e-6,2.428791 1.117545,4.722503 3.030207,6.219416 1.912586,-1.496953 3.030048,-3.790659 3.030011,-6.219416"
       sodipodi:nodetypes="ccc" />
    <path
       id="path947-0-6-2-1-8"
       style="fill:#8c3ae7;fill-opacity:1;stroke:none;stroke-width:0.375236;stroke-linecap:round;stroke-linejoin:round;stroke-miterlimit:4;stroke-dasharray:none;stroke-opacity:1"
       d="m 19.588497,14.740011 c -1.029747,0 -1.864526,-0.834775 -1.864526,-1.864522 0,-1.029751 0.834775,-1.864526 1.864526,-1.864526 h 4.104326 c 1.029751,0 1.864526,0.834775 1.864526,1.864526 0,1.029747 -0.834779,1.864522 -1.864526,1.864522 z"
       sodipodi:nodetypes="csccscc" />
    <circle
       style="fill:#000000;fill-opacity:1;stroke:none;stroke-width:0.375236;stroke-linecap:round;stroke-linejoin:round;stroke-miterlimit:4;stroke-dasharray:none;stroke-opacity:1"
       id="path947-2"
       cx="12.79192"
       cy="9.1463442"
       r="1.8645244" />
    <circle
       style="fill:#000000;fill-opacity:1;stroke:none;stroke-width:0.375236;stroke-linecap:round;stroke-linejoin:round;stroke-miterlimit:4;stroke-dasharray:none;stroke-opacity:1"
       id="path947-2-8"
       cx="30.567791"
       cy="9.1463442"
       r="1.8645246" />
  </g>
</svg>
