<?xml version="1.0" encoding="UTF-8" standalone="no"?>
<svg
   xmlns:dc="http://purl.org/dc/elements/1.1/"
   xmlns:cc="http://creativecommons.org/ns#"
   xmlns:rdf="http://www.w3.org/1999/02/22-rdf-syntax-ns#"
   xmlns:svg="http://www.w3.org/2000/svg"
   xmlns="http://www.w3.org/2000/svg"
   xmlns:sodipodi="http://sodipodi.sourceforge.net/DTD/sodipodi-0.dtd"
   xmlns:inkscape="http://www.inkscape.org/namespaces/inkscape"
   width="120mm"
   height="212mm"
   viewBox="0 0 120 212"
   version="1.1"
   id="svg8"
   inkscape:version="1.0.1 (0767f8302a, 2020-10-17)"
   sodipodi:docname="budgie.svg">
  <defs
     id="defs2" />
  <sodipodi:namedview
     id="base"
     pagecolor="#ffffff"
     bordercolor="#666666"
     borderopacity="1.0"
     inkscape:pageopacity="0.0"
     inkscape:pageshadow="2"
     inkscape:zoom="0.9"
     inkscape:cx="-218.35053"
     inkscape:cy="301.258"
     inkscape:document-units="mm"
     inkscape:current-layer="layer1"
     inkscape:document-rotation="0"
     showgrid="false"
     inkscape:window-width="1859"
     inkscape:window-height="1056"
     inkscape:window-x="61"
     inkscape:window-y="24"
     inkscape:window-maximized="1" />
  <metadata
     id="metadata5">
    <rdf:RDF>
      <cc:Work
         rdf:about="">
        <dc:format>image/svg+xml</dc:format>
        <dc:type
           rdf:resource="http://purl.org/dc/dcmitype/StillImage" />
        <dc:title />
      </cc:Work>
    </rdf:RDF>
  </metadata>
  <g
     inkscape:label="Layer 1"
     inkscape:groupmode="layer"
     id="layer1">
    <circle
       style="fill:#e2e73a;fill-opacity:1;stroke:none;stroke-width:1;stroke-linecap:round;stroke-linejoin:round;stroke-miterlimit:4;stroke-dasharray:none;stroke-opacity:1"
       id="path947-6-56"
       cx="60.276291"
       cy="34.05479"
       r="34.05479" />
    <g
       aria-label="Budgie"
       transform="matrix(1,0,-0.15217712,1,0.05440395,0)"
       id="text1075"
       style="font-style:normal;font-variant:normal;font-weight:normal;font-stretch:normal;font-size:35.5543px;line-height:1.25;font-family:'Futura BdCn BT';-inkscape-font-specification:'Futura BdCn BT';stroke-width:0.888858;fill:#3a3a3a;fill-opacity:1">
      <path
         d="m 50.835099,188.84366 h 0.538176 q 1.944375,0 2.847121,-0.76386 0.920106,-0.76386 0.920106,-2.36103 0,-1.68397 -0.937466,-2.48255 -0.920107,-0.79858 -2.864482,-0.79858 h -0.503455 z m 0,10.31214 q 0.121524,0 0.34721,0.0174 0.243047,0.0174 0.364571,0.0174 1.944375,0 2.8124,-0.78123 0.885385,-0.78122 0.885385,-2.48255 0,-1.82285 -0.885385,-2.60407 -0.885385,-0.78122 -2.916563,-0.78122 h -0.607618 z m -4.89566,4.51373 V 178.3232 h 4.930381 q 4.965102,0 7.013641,1.56244 2.065899,1.54509 2.065899,5.19079 0,2.0659 -0.781222,3.40266 -0.781223,1.33676 -2.43047,2.13534 1.840213,0.6597 2.708238,2.08326 0.885385,1.4062 0.885385,3.71515 0,1.71869 -0.572896,3.12489 -0.572897,1.38884 -1.666608,2.36102 -1.093711,0.95483 -2.638796,1.37148 -1.527723,0.3993 -4.826218,0.3993 z"
         style="font-style:normal;font-variant:normal;font-weight:normal;font-stretch:normal;font-family:'Futura BdCn BT';-inkscape-font-specification:'Futura BdCn BT';stroke-width:0.888858;fill:#3a3a3a;fill-opacity:1"
         id="path1077" />
      <path
         d="m 75.382842,186.63888 v 8.81913 q 0,5.10399 -1.354119,6.82268 -1.336759,1.70132 -4.860939,1.70132 -3.541542,0 -4.913021,-1.70132 -1.354119,-1.70133 -1.354119,-6.82268 v -8.81913 h 4.583171 v 10.95447 q 0,1.33676 0.364571,1.80549 0.36457,0.46874 1.284677,0.46874 0.920106,0 1.284676,-0.4861 0.381931,-0.48609 0.381931,-1.78813 v -10.95447 z"
         style="font-style:normal;font-variant:normal;font-weight:normal;font-stretch:normal;font-family:'Futura BdCn BT';-inkscape-font-specification:'Futura BdCn BT';stroke-width:0.888858;fill:#3a3a3a;fill-opacity:1"
         id="path1079" />
      <path
         d="m 86.771328,194.88511 q 0,-2.44783 -0.503455,-3.52418 -0.486094,-1.09371 -1.597165,-1.09371 -1.02427,0 -1.493003,1.09371 -0.451373,1.09371 -0.451373,3.5589 0,2.44783 0.503454,3.66307 0.520815,1.21523 1.562445,1.21523 1.05899,0 1.510363,-1.11107 0.468734,-1.12843 0.468734,-3.80195 z m 4.54845,8.78442 h -4.54845 v -2.48256 q -0.67706,1.42356 -1.631887,2.13535 -0.937467,0.69442 -2.170062,0.69442 -2.343667,0 -3.628344,-2.29159 -1.284677,-2.30895 -1.284677,-6.54491 0,-4.18388 1.319398,-6.44074 1.319398,-2.27423 3.732507,-2.27423 1.093711,0 1.996457,0.64234 0.920106,0.64234 1.666608,1.94438 v -12.29124 h 4.54845 z"
         style="font-style:normal;font-variant:normal;font-weight:normal;font-stretch:normal;font-family:'Futura BdCn BT';-inkscape-font-specification:'Futura BdCn BT';stroke-width:0.888858;fill:#3a3a3a;fill-opacity:1"
         id="path1081" />
      <path
         d="m 102.88187,186.63888 h 4.54845 v 15.74597 q 0,5.46855 -1.45828,7.30877 -1.44092,1.84021 -5.22551,1.84021 -2.986007,0 -4.635254,-1.56244 -1.649247,-1.54509 -1.649247,-4.34013 v -0.26041 h 3.975554 q 0,1.2326 0.555536,1.84022 0.572896,0.62497 1.683971,0.62497 1.21523,0 1.70133,-0.64233 0.50345,-0.62498 0.50345,-2.23951 v -3.52418 q -0.81594,1.19788 -1.75341,1.80549 -0.92011,0.60762 -1.944376,0.60762 -2.430469,0 -3.732507,-2.2395 -1.284677,-2.23951 -1.284677,-6.47547 0,-4.14916 1.319398,-6.40602 1.319398,-2.25687 3.732507,-2.25687 1.145795,0 2.048535,0.69442 0.92011,0.67706 1.61453,2.08326 z m 0,8.24623 q 0,-2.48255 -0.48609,-3.54154 -0.4861,-1.07635 -1.61453,-1.07635 -1.024269,0 -1.493003,1.09371 -0.451373,1.09371 -0.451373,3.5589 0,2.44783 0.503455,3.66307 0.520815,1.21523 1.562441,1.21523 1.05899,0 1.51037,-1.11107 0.46873,-1.12843 0.46873,-3.80195 z"
         style="font-style:normal;font-variant:normal;font-weight:normal;font-stretch:normal;font-family:'Futura BdCn BT';-inkscape-font-specification:'Futura BdCn BT';stroke-width:0.888858;fill:#3a3a3a;fill-opacity:1"
         id="path1083" />
      <path
         d="m 110.71145,182.09043 q 0,-1.16316 0.76386,-1.94438 0.78123,-0.79858 1.94438,-0.79858 1.11107,0 1.89229,0.79858 0.79859,0.79858 0.79859,1.94438 0,1.11107 -0.78123,1.89229 -0.78122,0.76386 -1.90965,0.76386 -1.16315,0 -1.94438,-0.7465 -0.76386,-0.76386 -0.76386,-1.90965 z m 0.34721,21.5791 v -17.03065 h 4.7047 v 17.03065 z"
         style="font-style:normal;font-variant:normal;font-weight:normal;font-stretch:normal;font-family:'Futura BdCn BT';-inkscape-font-specification:'Futura BdCn BT';stroke-width:0.888858;fill:#3a3a3a;fill-opacity:1"
         id="path1085" />
      <path
         d="m 128.03723,193.7046 q -0.0521,-1.85757 -0.67706,-2.74296 -0.60762,-0.90274 -1.84021,-0.90274 -1.21524,0 -1.85758,0.93746 -0.64234,0.93747 -0.64234,2.7256 z m -5.01719,2.70824 v 0.13888 q 0,1.90966 0.67706,2.93393 0.67706,1.02426 1.92702,1.02426 0.79858,0 1.35412,-0.48609 0.57289,-0.48609 0.9201,-1.47564 h 4.045 q -0.55554,2.55199 -2.30895,3.99291 -1.73605,1.44092 -4.27068,1.44092 -3.17697,0 -5.0519,-2.37838 -1.87494,-2.37839 -1.87494,-6.42339 0,-4.09708 1.87494,-6.47546 1.87493,-2.37839 5.0519,-2.37839 3.36794,0 5.08663,2.34367 1.71869,2.34366 1.71869,6.92683 v 0.81595 z"
         style="font-style:normal;font-variant:normal;font-weight:normal;font-stretch:normal;font-family:'Futura BdCn BT';-inkscape-font-specification:'Futura BdCn BT';stroke-width:0.888858;fill:#3a3a3a;fill-opacity:1"
         id="path1087" />
    </g>
    <path
       id="path947-6-9-2-7"
       style="fill:#3ae740;fill-opacity:1;stroke:none;stroke-width:1;stroke-linecap:round;stroke-linejoin:round;stroke-miterlimit:4;stroke-dasharray:none;stroke-opacity:1"
       d="m 118.05328,93.355312 c 0,12.309438 -2.49469,24.036208 -7.00607,34.702308 -2.78825,6.59215 -6.8229,12.52875 -11.80853,17.51438 -9.97125,9.97126 -23.74641,16.13861 -38.96204,16.13861 -15.21563,0 -28.99079,-6.16735 -38.96204,-16.13861 C 16.32897,140.58637 12.29432,134.64977 9.50607,128.05762 4.99469,117.39152 2.5,105.66475 2.5,93.355308 2.5,81.045866 4.99469,69.319092 9.50607,58.652991 12.29432,52.060841 16.32897,46.124236 21.3146,41.138607 31.28585,31.167355 45.06102,25 60.27664,25 c 15.21563,0 28.99079,6.16735 38.96204,16.138607 4.98563,4.985628 9.02028,10.922233 11.80853,17.514385 4.51138,10.666103 7.00607,22.392877 7.00607,34.70232 z"
       sodipodi:nodetypes="scssscscssscs" />
    <path
       id="path947-6-9-9-2"
       style="fill:#1ad420;fill-opacity:1;stroke:none;stroke-width:1;stroke-linecap:round;stroke-linejoin:round;stroke-miterlimit:4;stroke-dasharray:none;stroke-opacity:1"
       d="m 27.65985,35.690531 c -2.25094,1.655981 -4.37362,3.476512 -6.34535,5.448247 -4.98563,4.985628 -9.02033,10.922026 -11.80858,17.514175 -4.51138,10.6661 -7.00577,22.392833 -7.00577,34.702274 0,12.309443 2.49439,24.036183 7.00577,34.702273 2.66128,6.29197 6.4604,11.98465 11.13575,16.82533 A 89.152869,89.152869 0 0 0 43.05581,85.77171 89.152869,89.152869 0 0 0 27.65985,35.690531 Z" />
    <circle
       style="fill:#e2e73a;fill-opacity:1;stroke:none;stroke-width:1;stroke-linecap:round;stroke-linejoin:round;stroke-miterlimit:4;stroke-dasharray:none;stroke-opacity:1"
       id="path947-6-3-3"
       cx="47.284058"
       cy="36.814278"
       r="21.047462" />
    <path
       id="path947-6-9-9-2-3"
       style="fill:#1ad420;fill-opacity:1;stroke:none;stroke-width:1;stroke-linecap:round;stroke-linejoin:round;stroke-miterlimit:4;stroke-dasharray:none;stroke-opacity:1"
       d="m 92.89596,35.691 c 2.25094,1.655981 4.37361,3.476512 6.34535,5.448247 4.98563,4.985628 9.02033,10.922026 11.80858,17.514175 4.51138,10.666101 7.00577,22.392834 7.00577,34.702275 0,12.309443 -2.49439,24.036183 -7.00577,34.702273 -2.66129,6.29197 -6.4604,11.98465 -11.13575,16.82533 A 89.15287,89.15287 0 0 1 77.5,85.77218 89.15287,89.15287 0 0 1 92.89596,35.691 Z" />
    <circle
       style="fill:#e2e73a;fill-opacity:1;stroke:none;stroke-width:1;stroke-linecap:round;stroke-linejoin:round;stroke-miterlimit:4;stroke-dasharray:none;stroke-opacity:1"
       id="path947-6-3-6"
       cx="73.228271"
       cy="36.814461"
       r="21.047462" />
    <path
       id="path947-0-6"
       style="fill:#e2e73a;fill-opacity:1;stroke:none;stroke-width:1;stroke-linecap:round;stroke-linejoin:round;stroke-miterlimit:4;stroke-dasharray:none;stroke-opacity:1"
       d="m 42.43789,163.40695 c 0,2.74427 -2.22467,4.96895 -4.96894,4.96895 -2.74428,0 -4.96895,-2.22467 -4.96895,-4.96895 v -10.938 c 0,-2.74428 2.22467,-4.96895 4.96895,-4.96895 2.74427,0 4.96894,2.22468 4.96894,4.96895 z"
       sodipodi:nodetypes="csccscc" />
    <path
       id="path947-0-6-2"
       style="fill:#e2e73a;fill-opacity:1;stroke:none;stroke-width:1;stroke-linecap:round;stroke-linejoin:round;stroke-miterlimit:4;stroke-dasharray:none;stroke-opacity:1"
       d="m 52.37589,163.40695 c 0,2.74427 -2.22467,4.96895 -4.96894,4.96895 -2.74428,0 -4.96895,-2.22467 -4.96895,-4.96895 v -10.938 c 0,-2.74428 2.22467,-4.96895 4.96895,-4.96895 2.74427,0 4.96894,2.22468 4.96894,4.96895 z"
       sodipodi:nodetypes="csccscc" />
    <path
       id="path947-0-6-6"
       style="fill:#e2e73a;fill-opacity:1;stroke:none;stroke-width:1;stroke-linecap:round;stroke-linejoin:round;stroke-miterlimit:4;stroke-dasharray:none;stroke-opacity:1"
       d="m 78.11489,163.40695 c 0,2.74427 -2.22467,4.96895 -4.96894,4.96895 -2.74428,0 -4.96895,-2.22467 -4.96895,-4.96895 v -10.938 c 0,-2.74428 2.22467,-4.96895 4.96895,-4.96895 2.74427,0 4.96894,2.22468 4.96894,4.96895 z"
       sodipodi:nodetypes="csccscc" />
    <path
       id="path947-0-6-2-1"
       style="fill:#e2e73a;fill-opacity:1;stroke:none;stroke-width:1;stroke-linecap:round;stroke-linejoin:round;stroke-miterlimit:4;stroke-dasharray:none;stroke-opacity:1"
       d="m 88.05289,163.40695 c 0,2.74427 -2.22467,4.96895 -4.96894,4.96895 -2.74428,0 -4.96895,-2.22467 -4.96895,-4.96895 v -10.938 c 0,-2.74428 2.22467,-4.96895 4.96895,-4.96895 2.74427,0 4.96894,2.22468 4.96894,4.96895 z"
       sodipodi:nodetypes="csccscc" />
    <path
       id="path947-6-3-3-7"
       style="fill:#bec318;fill-opacity:1;stroke:none;stroke-width:1;stroke-linecap:round;stroke-linejoin:round;stroke-miterlimit:4;stroke-dasharray:none;stroke-opacity:1"
       d="m 52.18135,36.814494 c 2e-5,6.472708 2.97825,12.585434 8.07548,16.574698 5.09703,-3.989368 8.07506,-10.102079 8.07496,-16.574698"
       sodipodi:nodetypes="ccc" />
    <path
       id="path947-0-6-2-1-8"
       style="fill:#8c3ae7;fill-opacity:1;stroke:none;stroke-width:1;stroke-linecap:round;stroke-linejoin:round;stroke-miterlimit:4;stroke-dasharray:none;stroke-opacity:1"
       d="m 54.70321,39.282028 c -2.74427,0 -4.96895,-2.224669 -4.96895,-4.968939 0,-2.74428 2.22467,-4.96895 4.96895,-4.96895 h 10.938 c 2.74428,0 4.96895,2.22467 4.96895,4.96895 0,2.74427 -2.22468,4.968939 -4.96895,4.968939 z"
       sodipodi:nodetypes="csccscc" />
    <circle
       style="fill:#000000;fill-opacity:1;stroke:none;stroke-width:1;stroke-linecap:round;stroke-linejoin:round;stroke-miterlimit:4;stroke-dasharray:none;stroke-opacity:1"
       id="path947-2"
       cx="36.590378"
       cy="24.374945"
       r="4.9689445" />
    <circle
       style="fill:#000000;fill-opacity:1;stroke:none;stroke-width:1;stroke-linecap:round;stroke-linejoin:round;stroke-miterlimit:4;stroke-dasharray:none;stroke-opacity:1"
       id="path947-2-8"
       cx="83.962952"
       cy="24.374945"
       r="4.968945" />
  </g>
</svg>
